# xmcd
#
# Track frame offsets: 
#        150
#        14641
#        30045
#        41583
#        54542
#        66565
#        81942
#        93792
#        104696
#        115737
#
# Disc length: 1699 seconds
#
# Revision: 0
# Processed by: cddbd v1.5.2PL0 Copyright (c) Steve Scherf et al.
# Submitted via: ExactAudioCopy v1.3
#
DISCID=7d06a10a
DTITLE=Porter Wagoner - Viva
DYEAR=1983
DGENRE=Country
TTITLE0=This Cowboy's Hat
TTITLE1=That Was Then, This Is Now
TTITLE2=I Thought I Heard You Calling My Name
TTITLE3=Living In The Shadows
TTITLE4=Heaven, Hell Or Macon
TTITLE5=We Can't Stop
TTITLE6=Green, Green Grass Of Home
TTITLE7=His And Hers
TTITLE8=Misery Loves Company
TTITLE9=Bottom Of The Fifth
EXTD=
EXTT0=
EXTT1=
EXTT2=
EXTT3=
EXTT4=
EXTT5=
EXTT6=
EXTT7=
EXTT8=
EXTT9=
PLAYORDER=
